<?xml version="1.0" standalone="no"?>
<!DOCTYPE svg PUBLIC "-//W3C//DTD SVG 20010904//EN"
 "http://www.w3.org/TR/2001/REC-SVG-20010904/DTD/svg10.dtd">
<svg version="1.0" xmlns="http://www.w3.org/2000/svg"
 width="512.000000pt" height="512.000000pt" viewBox="0 0 512.000000 512.000000"
 preserveAspectRatio="xMidYMid meet">
<metadata>
Created by potrace 1.11, written by Peter Selinger 2001-2013
</metadata>
<g transform="translate(0.000000,512.000000) scale(0.100000,-0.100000)"
fill="#000000" stroke="none">
<path d="M4671 5104 c-35 -7 -106 -27 -158 -45 l-94 -31 -947 -949 c-520 -522
-950 -948 -954 -947 -3 2 -42 35 -85 74 -43 40 -96 88 -118 108 -46 41 -89 53
-138 37 -68 -23 -92 -66 -102 -189 -4 -45 -11 -107 -16 -139 -5 -32 -10 -82
-11 -111 -2 -56 -4 -57 -63 -32 -34 14 -124 37 -180 46 -16 3 -36 7 -43 9 -34
12 -160 20 -297 19 -371 -2 -709 -142 -953 -396 -84 -88 -102 -109 -158 -195
-100 -150 -174 -323 -206 -475 -6 -31 -14 -55 -17 -54 -14 8 -21 -379 -9 -459
25 -170 65 -299 137 -451 189 -395 523 -696 932 -839 167 -58 264 -76 449 -80
403 -9 764 134 1040 413 47 48 88 85 92 84 4 -1 5 5 2 13 -4 8 1 17 10 21 9 3
16 10 16 15 0 5 9 19 20 32 28 32 52 75 109 192 125 258 162 528 116 855 -10
74 -55 244 -80 303 -8 20 -15 38 -15 41 0 4 39 15 50 15 3 0 17 4 33 10 15 6
38 13 50 15 84 18 289 77 314 90 38 19 53 59 41 106 -7 26 -48 73 -168 191
l-159 156 101 94 c228 213 195 189 268 190 36 1 108 2 160 4 52 2 110 3 128 4
l32 1 0 260 0 260 118 1 c64 0 168 2 230 3 l112 2 89 88 89 89 0 66 c-1 322 3
418 15 418 31 1 217 14 262 19 47 5 54 9 123 82 40 42 88 95 107 118 l35 41 5
214 c3 118 8 224 10 237 2 12 0 22 -4 22 -7 0 -473 -470 -1041 -1050 -85 -87
-384 -390 -665 -675 l-509 -517 -166 -84 c-91 -46 -172 -86 -181 -89 -9 -3
139 151 328 342 189 192 411 417 494 501 83 84 156 149 161 146 6 -4 8 -2 4 4
-8 14 284 313 298 305 6 -3 8 -3 4 2 -4 4 80 96 186 204 107 108 293 296 413
418 120 122 323 328 452 458 l235 236 3 50 2 50 -47 21 c-59 26 -200 32 -291
12z m-3464 -3738 c62 -21 145 -92 175 -150 90 -171 24 -368 -150 -453 -47 -23
-70 -28 -132 -28 -128 1 -234 67 -297 187 -24 46 -28 65 -28 138 0 73 4 93 27
141 77 156 238 222 405 165z"/>
</g>
</svg>
